<svg xmlns="http://www.w3.org/2000/svg" viewBox="0 0 100 100">
  <style>
    @media (prefers-color-scheme: dark) {
      svg { fill: white; }
    }
  </style>
  <path d="M 70.210308,7.6924745 C 66.621821,7.6057361 62.993501,4.8653243 61.195292,1.6824944 59.125217,2.4462962 50.279265,4.1208876 49.909982,6.6570326 c -0.299156,2.0546013 4.598521,6.7391284 6.228619,7.0937914 3.996258,0.869441 11.709837,-3.048882 14.071707,-6.0583495 M 55.927407,24.779687 c -4.56785,2.545109 -15.390236,4.480828 -17.033015,10.195919 l 7.42331,-3.426142 c 1.705705,4.788893 -0.650282,9.582578 -1.94485,14.275599 -2.492519,9.035878 -7.107706,21.379138 -5.014046,30.83301 0.982789,4.437998 8.70004,4.570197 11.794418,2.654983 5.146411,-3.18517 12.336805,-7.776352 14.322941,-13.76468 -3.418149,1.349898 -6.884384,7.876703 -10.268325,7.876132 -4.978816,0 -2.867739,-9.233456 -2.463397,-11.8733 1.203148,-7.855124 3.328097,-15.879557 5.848595,-23.411988 1.389475,-4.152312 0.905839,-9.95503 -2.665631,-13.359533"/>
</svg>
